<svg width="56" height="56" viewBox="0 0 56 56" fill="none" xmlns="http://www.w3.org/2000/svg">
<rect width="56" height="56" rx="28" fill="#98F5A2"/>
<path d="M38.2814 31C40.2742 31 41.9017 32.5671 41.9957 34.5374L42 34.7176V35.375C42 38.6611 40.301 41.121 37.6948 42.7077C35.132 44.2679 31.6872 45 28 45C24.3128 45 20.868 44.2679 18.3052 42.7077C15.7779 41.1691 14.1038 38.8093 14.0047 35.6715L14 35.375V34.7178C14 32.7241 15.5688 31.0982 17.5385 31.0043L17.7187 31H38.2814ZM28 10C32.8325 10 36.75 13.9175 36.75 18.75C36.75 23.5824 32.8325 27.5 28 27.5C23.1676 27.5 19.25 23.5824 19.25 18.75C19.25 13.9175 23.1676 10 28 10Z" fill="#2D9557"/>
</svg>
